<svg width="100" height="90" viewBox="0 0 100 90" fill="none" xmlns="http://www.w3.org/2000/svg">
<g filter="url(#filter0_dd_6030_144)">
<rect x="10" y="10" width="80" height="70" rx="5" fill="black" fill-opacity="0.7" shape-rendering="crispEdges"/>
<rect x="10.5" y="10.5" width="79" height="69" rx="4.5" stroke="#B6FFBA" shape-rendering="crispEdges"/>
<path d="M36.614 36.5455V54H32.9237V40.0483H32.8214L28.8242 42.554V39.2812L33.1452 36.5455H36.614ZM47.6062 54.3835C46.1403 54.3778 44.8789 54.017 43.8221 53.3011C42.771 52.5852 41.9613 51.5483 41.3931 50.1903C40.8306 48.8324 40.5522 47.1989 40.5579 45.2898C40.5579 43.3864 40.8391 41.7642 41.4016 40.4233C41.9698 39.0824 42.7795 38.0625 43.8306 37.3636C44.8874 36.6591 46.146 36.3068 47.6062 36.3068C49.0664 36.3068 50.3221 36.6591 51.3732 37.3636C52.43 38.0682 53.2425 39.0909 53.8107 40.4318C54.3789 41.767 54.6602 43.3864 54.6545 45.2898C54.6545 47.2045 54.3704 48.8409 53.8022 50.1989C53.2397 51.5568 52.4329 52.5937 51.3817 53.3097C50.3306 54.0256 49.0721 54.3835 47.6062 54.3835ZM47.6062 51.3239C48.6062 51.3239 49.4045 50.821 50.0011 49.8153C50.5977 48.8097 50.8931 47.3011 50.8874 45.2898C50.8874 43.9659 50.7511 42.8636 50.4783 41.983C50.2113 41.1023 49.8306 40.4403 49.3363 39.9972C48.8477 39.554 48.271 39.3324 47.6062 39.3324C46.6119 39.3324 45.8164 39.8295 45.2198 40.8239C44.6232 41.8182 44.3221 43.3068 44.3164 45.2898C44.3164 46.6307 44.4499 47.75 44.717 48.6477C44.9897 49.5398 45.3732 50.2102 45.8675 50.6591C46.3619 51.1023 46.9414 51.3239 47.6062 51.3239ZM64.1296 54.3835C62.6637 54.3778 61.4023 54.017 60.3455 53.3011C59.2944 52.5852 58.4847 51.5483 57.9165 50.1903C57.354 48.8324 57.0756 47.1989 57.0813 45.2898C57.0813 43.3864 57.3626 41.7642 57.9251 40.4233C58.4933 39.0824 59.3029 38.0625 60.354 37.3636C61.4109 36.6591 62.6694 36.3068 64.1296 36.3068C65.5898 36.3068 66.8455 36.6591 67.8967 37.3636C68.9535 38.0682 69.766 39.0909 70.3342 40.4318C70.9023 41.767 71.1836 43.3864 71.1779 45.2898C71.1779 47.2045 70.8938 48.8409 70.3256 50.1989C69.7631 51.5568 68.9563 52.5937 67.9052 53.3097C66.854 54.0256 65.5955 54.3835 64.1296 54.3835ZM64.1296 51.3239C65.1296 51.3239 65.9279 50.821 66.5245 49.8153C67.1211 48.8097 67.4165 47.3011 67.4109 45.2898C67.4109 43.9659 67.2745 42.8636 67.0018 41.983C66.7347 41.1023 66.354 40.4403 65.8597 39.9972C65.3711 39.554 64.7944 39.3324 64.1296 39.3324C63.1353 39.3324 62.3398 39.8295 61.7433 40.8239C61.1467 41.8182 60.8455 43.3068 60.8398 45.2898C60.8398 46.6307 60.9734 47.75 61.2404 48.6477C61.5131 49.5398 61.8967 50.2102 62.391 50.6591C62.8853 51.1023 63.4648 51.3239 64.1296 51.3239Z" fill="#21A038"/>
</g>
<defs>
<filter id="filter0_dd_6030_144" x="0" y="0" width="100" height="90" filterUnits="userSpaceOnUse" color-interpolation-filters="sRGB">
<feFlood flood-opacity="0" result="BackgroundImageFix"/>
<feColorMatrix in="SourceAlpha" type="matrix" values="0 0 0 0 0 0 0 0 0 0 0 0 0 0 0 0 0 0 127 0" result="hardAlpha"/>
<feOffset dy="4"/>
<feGaussianBlur stdDeviation="2"/>
<feComposite in2="hardAlpha" operator="out"/>
<feColorMatrix type="matrix" values="0 0 0 0 0 0 0 0 0 0 0 0 0 0 0 0 0 0 0.5 0"/>
<feBlend mode="normal" in2="BackgroundImageFix" result="effect1_dropShadow_6030_144"/>
<feColorMatrix in="SourceAlpha" type="matrix" values="0 0 0 0 0 0 0 0 0 0 0 0 0 0 0 0 0 0 127 0" result="hardAlpha"/>
<feOffset/>
<feGaussianBlur stdDeviation="5"/>
<feComposite in2="hardAlpha" operator="out"/>
<feColorMatrix type="matrix" values="0 0 0 0 0.713726 0 0 0 0 1 0 0 0 0 0.729412 0 0 0 1 0"/>
<feBlend mode="normal" in2="effect1_dropShadow_6030_144" result="effect2_dropShadow_6030_144"/>
<feBlend mode="normal" in="SourceGraphic" in2="effect2_dropShadow_6030_144" result="shape"/>
</filter>
</defs>
</svg>
