<svg width="100" height="90" viewBox="0 0 100 90" fill="none" xmlns="http://www.w3.org/2000/svg">
<g filter="url(#filter0_dd_1_535)">
<rect x="10" y="10" width="80" height="70" rx="5" fill="black" fill-opacity="0.7" shape-rendering="crispEdges"/>
<rect x="10.5" y="10.5" width="79" height="69" rx="4.5" stroke="#B6FFBA" shape-rendering="crispEdges"/>
<path d="M43.8562 54V51.3409L50.0692 45.5881C50.5977 45.0767 51.0408 44.6165 51.3988 44.2074C51.7624 43.7983 52.038 43.3977 52.2255 43.0057C52.413 42.608 52.5067 42.179 52.5067 41.7188C52.5067 41.2074 52.3903 40.767 52.1573 40.3977C51.9244 40.0227 51.6062 39.7358 51.2028 39.5369C50.7994 39.3324 50.342 39.2301 49.8306 39.2301C49.2965 39.2301 48.8306 39.3381 48.4329 39.554C48.0352 39.7699 47.7283 40.0795 47.5124 40.483C47.2965 40.8864 47.1886 41.3665 47.1886 41.9233H43.6857C43.6857 40.7812 43.9442 39.7898 44.4613 38.9489C44.9783 38.108 45.7028 37.4574 46.6346 36.9972C47.5664 36.5369 48.6403 36.3068 49.8562 36.3068C51.1062 36.3068 52.1942 36.5284 53.1204 36.9716C54.0522 37.4091 54.7766 38.017 55.2937 38.7955C55.8107 39.5739 56.0692 40.4659 56.0692 41.4716C56.0692 42.1307 55.9386 42.7812 55.6772 43.4233C55.4215 44.0653 54.9641 44.7784 54.305 45.5625C53.646 46.3409 52.717 47.2756 51.5181 48.3665L48.9698 50.8636V50.983H56.2994V54H43.8562Z" fill="#21A038"/>
</g>
<defs>
<filter id="filter0_dd_1_535" x="0" y="0" width="100" height="90" filterUnits="userSpaceOnUse" color-interpolation-filters="sRGB">
<feFlood flood-opacity="0" result="BackgroundImageFix"/>
<feColorMatrix in="SourceAlpha" type="matrix" values="0 0 0 0 0 0 0 0 0 0 0 0 0 0 0 0 0 0 127 0" result="hardAlpha"/>
<feOffset dy="4"/>
<feGaussianBlur stdDeviation="2"/>
<feComposite in2="hardAlpha" operator="out"/>
<feColorMatrix type="matrix" values="0 0 0 0 0 0 0 0 0 0 0 0 0 0 0 0 0 0 0.5 0"/>
<feBlend mode="normal" in2="BackgroundImageFix" result="effect1_dropShadow_1_535"/>
<feColorMatrix in="SourceAlpha" type="matrix" values="0 0 0 0 0 0 0 0 0 0 0 0 0 0 0 0 0 0 127 0" result="hardAlpha"/>
<feOffset/>
<feGaussianBlur stdDeviation="5"/>
<feComposite in2="hardAlpha" operator="out"/>
<feColorMatrix type="matrix" values="0 0 0 0 0.713726 0 0 0 0 1 0 0 0 0 0.729412 0 0 0 1 0"/>
<feBlend mode="normal" in2="effect1_dropShadow_1_535" result="effect2_dropShadow_1_535"/>
<feBlend mode="normal" in="SourceGraphic" in2="effect2_dropShadow_1_535" result="shape"/>
</filter>
</defs>
</svg>
