<svg width="81" height="156" viewBox="0 0 81 156" fill="none" xmlns="http://www.w3.org/2000/svg">
<g filter="url(#filter0_d_1_489)">
<path d="M77 10.0625C77 4.53965 72.5228 0.0625 67 0.0625H-43C-48.5229 0.0625 -53 4.53965 -53 10.0625V137.938C-53 143.46 -48.5229 147.938 -43 147.938H67C72.5228 147.938 77 143.46 77 137.938V10.0625Z" fill="#D9D9D9"/>
<path d="M77 10.0625C77 4.53965 72.5228 0.0625 67 0.0625H-43C-48.5229 0.0625 -53 4.53965 -53 10.0625V137.938C-53 143.46 -48.5229 147.938 -43 147.938H67C72.5228 147.938 77 143.46 77 137.938V10.0625Z" fill="url(#paint0_linear_1_489)" fill-opacity="0.7"/>
</g>
<defs>
<filter id="filter0_d_1_489" x="-57" y="0.0625" width="138" height="155.875" filterUnits="userSpaceOnUse" color-interpolation-filters="sRGB">
<feFlood flood-opacity="0" result="BackgroundImageFix"/>
<feColorMatrix in="SourceAlpha" type="matrix" values="0 0 0 0 0 0 0 0 0 0 0 0 0 0 0 0 0 0 127 0" result="hardAlpha"/>
<feOffset dy="4"/>
<feGaussianBlur stdDeviation="2"/>
<feComposite in2="hardAlpha" operator="out"/>
<feColorMatrix type="matrix" values="0 0 0 0 0 0 0 0 0 0 0 0 0 0 0 0 0 0 0.25 0"/>
<feBlend mode="normal" in2="BackgroundImageFix" result="effect1_dropShadow_1_489"/>
<feBlend mode="normal" in="SourceGraphic" in2="effect1_dropShadow_1_489" result="shape"/>
</filter>
<linearGradient id="paint0_linear_1_489" x1="-86.442" y1="74.312" x2="77" y2="74" gradientUnits="userSpaceOnUse">
<stop offset="0.252161" stop-opacity="0"/>
<stop offset="1"/>
</linearGradient>
</defs>
</svg>
