<svg width="82" height="156" viewBox="0 0 82 156" fill="none" xmlns="http://www.w3.org/2000/svg">
<g filter="url(#filter0_d_1_491)">
<path d="M4 10.0625C4 4.53965 8.47715 0.0625 14 0.0625H124C129.523 0.0625 134 4.53965 134 10.0625V137.937C134 143.46 129.523 147.938 124 147.938H14C8.47715 147.938 4 143.46 4 137.938V10.0625Z" fill="#D9D9D9"/>
<path d="M4 10.0625C4 4.53965 8.47715 0.0625 14 0.0625H124C129.523 0.0625 134 4.53965 134 10.0625V137.937C134 143.46 129.523 147.938 124 147.938H14C8.47715 147.938 4 143.46 4 137.938V10.0625Z" fill="url(#paint0_linear_1_491)" fill-opacity="0.7"/>
</g>
<defs>
<filter id="filter0_d_1_491" x="0" y="0.0625" width="138" height="155.875" filterUnits="userSpaceOnUse" color-interpolation-filters="sRGB">
<feFlood flood-opacity="0" result="BackgroundImageFix"/>
<feColorMatrix in="SourceAlpha" type="matrix" values="0 0 0 0 0 0 0 0 0 0 0 0 0 0 0 0 0 0 127 0" result="hardAlpha"/>
<feOffset dy="4"/>
<feGaussianBlur stdDeviation="2"/>
<feComposite in2="hardAlpha" operator="out"/>
<feColorMatrix type="matrix" values="0 0 0 0 0 0 0 0 0 0 0 0 0 0 0 0 0 0 0.25 0"/>
<feBlend mode="normal" in2="BackgroundImageFix" result="effect1_dropShadow_1_491"/>
<feBlend mode="normal" in="SourceGraphic" in2="effect1_dropShadow_1_491" result="shape"/>
</filter>
<linearGradient id="paint0_linear_1_491" x1="167.442" y1="74.312" x2="4.00001" y2="74" gradientUnits="userSpaceOnUse">
<stop offset="0.252161" stop-opacity="0"/>
<stop offset="1"/>
</linearGradient>
</defs>
</svg>
