<svg width="90" height="90" viewBox="0 0 90 90" fill="none" xmlns="http://www.w3.org/2000/svg">
<path d="M45 0.555542C36.2097 0.555542 27.6168 3.16216 20.308 8.04578C12.9991 12.9294 7.30259 19.8707 3.93869 27.9918C0.574799 36.113 -0.305349 45.0493 1.40955 53.6707C3.12445 62.292 7.35737 70.2113 13.573 76.427C19.7887 82.6426 27.708 86.8756 36.3293 88.5905C44.9507 90.3054 53.887 89.4252 62.0082 86.0613C70.1293 82.6974 77.0706 77.0009 81.9542 69.692C86.8378 62.3831 89.4445 53.7903 89.4445 45C89.4445 33.2126 84.7619 21.908 76.427 13.573C68.092 5.23807 56.7874 0.555542 45 0.555542ZM74.0278 30.0833L37.5278 66.5555L15.9722 45C15.2355 44.2633 14.8216 43.2641 14.8216 42.2222C14.8216 41.1803 15.2355 40.1811 15.9722 39.4444C16.7089 38.7077 17.7081 38.2938 18.75 38.2938C19.7919 38.2938 20.7911 38.7077 21.5278 39.4444L37.5833 55.5L68.5278 24.5833C68.8926 24.2185 69.3256 23.9292 69.8022 23.7318C70.2789 23.5343 70.7897 23.4327 71.3056 23.4327C71.8214 23.4327 72.3323 23.5343 72.8089 23.7318C73.2855 23.9292 73.7186 24.2185 74.0833 24.5833C74.4481 24.9481 74.7375 25.3812 74.9349 25.8578C75.1323 26.3344 75.2339 26.8452 75.2339 27.3611C75.2339 27.877 75.1323 28.3878 74.9349 28.8644C74.7375 29.341 74.4481 29.7741 74.0833 30.1389L74.0278 30.0833Z" fill="#21A038"/>
<path d="M74.0278 30.0833L37.5278 66.5555L15.9722 45C15.2355 44.2633 14.8216 43.2641 14.8216 42.2222C14.8216 41.1803 15.2355 40.1811 15.9722 39.4444C16.7089 38.7077 17.7081 38.2938 18.75 38.2938C19.7919 38.2938 20.7911 38.7077 21.5278 39.4444L37.5833 55.5L68.5278 24.5833C68.8926 24.2185 69.3256 23.9292 69.8022 23.7318C70.2789 23.5343 70.7897 23.4327 71.3056 23.4327C71.8214 23.4327 72.3323 23.5343 72.8089 23.7318C73.2855 23.9292 73.7186 24.2185 74.0833 24.5833C74.4481 24.9481 74.7375 25.3812 74.9349 25.8578C75.1323 26.3344 75.2339 26.8452 75.2339 27.3611C75.2339 27.877 75.1323 28.3878 74.9349 28.8644C74.7375 29.341 74.4481 29.7741 74.0833 30.1389L74.0278 30.0833Z" fill="white"/>
</svg>
