<svg width="100" height="90" viewBox="0 0 100 90" fill="none" xmlns="http://www.w3.org/2000/svg">
<g filter="url(#filter0_dd_6030_227)">
<rect x="10" y="10" width="80" height="70" rx="5" fill="black" fill-opacity="0.7" shape-rendering="crispEdges"/>
<rect x="10.5" y="10.5" width="79" height="69" rx="4.5" stroke="#B6FFBA" shape-rendering="crispEdges"/>
<path d="M39.8281 46.8835L27.8281 52.1676V48.7159L36.044 45.4176L35.9332 45.5966V45.1705L36.044 45.3494L27.8281 42.0511V38.5994L39.8281 43.8835V46.8835ZM49.8509 54.2386C48.5781 54.2386 47.4446 54.0199 46.4503 53.5824C45.4616 53.1392 44.6804 52.5312 44.1065 51.7585C43.5384 50.9801 43.2457 50.0824 43.2287 49.0653H46.9446C46.9673 49.4915 47.1065 49.8665 47.3622 50.1903C47.6236 50.5085 47.9702 50.7557 48.402 50.9318C48.8338 51.108 49.3196 51.196 49.8594 51.196C50.4219 51.196 50.919 51.0966 51.3509 50.8977C51.7827 50.6989 52.1207 50.4233 52.3651 50.071C52.6094 49.7187 52.7315 49.3125 52.7315 48.8523C52.7315 48.3864 52.6009 47.9744 52.3395 47.6165C52.0838 47.2528 51.7145 46.9687 51.2315 46.7642C50.7543 46.5597 50.1861 46.4574 49.527 46.4574H47.8991V43.7472H49.527C50.0838 43.7472 50.5753 43.6506 51.0014 43.4574C51.4332 43.2642 51.7685 42.9972 52.0071 42.6562C52.2457 42.3097 52.3651 41.9062 52.3651 41.446C52.3651 41.0085 52.2599 40.625 52.0497 40.2955C51.8452 39.9602 51.5554 39.6989 51.1804 39.5114C50.8111 39.3239 50.3793 39.2301 49.8849 39.2301C49.3849 39.2301 48.9276 39.321 48.5128 39.5028C48.098 39.679 47.7656 39.9318 47.5156 40.2614C47.2656 40.5909 47.1321 40.9773 47.1151 41.4205H43.5781C43.5952 40.4148 43.8821 39.5284 44.4389 38.7614C44.9957 37.9943 45.7457 37.3949 46.6889 36.9631C47.6378 36.5256 48.7088 36.3068 49.902 36.3068C51.1065 36.3068 52.1605 36.5256 53.0639 36.9631C53.9673 37.4006 54.669 37.9915 55.169 38.7358C55.6747 39.4744 55.9247 40.304 55.919 41.2244C55.9247 42.2017 55.6207 43.017 55.0071 43.6705C54.3991 44.3239 53.6065 44.7386 52.6293 44.9148V45.0511C53.9134 45.2159 54.8906 45.6619 55.5611 46.3892C56.2372 47.1108 56.5724 48.0142 56.5668 49.0994C56.5724 50.0938 56.2855 50.9773 55.706 51.75C55.1321 52.5227 54.3395 53.1307 53.3281 53.5739C52.3168 54.017 51.1577 54.2386 49.8509 54.2386ZM66.0632 54.3835C64.5973 54.3778 63.3359 54.017 62.2791 53.3011C61.228 52.5852 60.4183 51.5483 59.8501 50.1903C59.2876 48.8324 59.0092 47.1989 59.0149 45.2898C59.0149 43.3864 59.2962 41.7642 59.8587 40.4233C60.4268 39.0824 61.2365 38.0625 62.2876 37.3636C63.3445 36.6591 64.603 36.3068 66.0632 36.3068C67.5234 36.3068 68.7791 36.6591 69.8303 37.3636C70.8871 38.0682 71.6996 39.0909 72.2678 40.4318C72.8359 41.767 73.1172 43.3864 73.1115 45.2898C73.1115 47.2045 72.8274 48.8409 72.2592 50.1989C71.6967 51.5568 70.8899 52.5937 69.8388 53.3097C68.7876 54.0256 67.5291 54.3835 66.0632 54.3835ZM66.0632 51.3239C67.0632 51.3239 67.8615 50.821 68.4581 49.8153C69.0547 48.8097 69.3501 47.3011 69.3445 45.2898C69.3445 43.9659 69.2081 42.8636 68.9354 41.983C68.6683 41.1023 68.2876 40.4403 67.7933 39.9972C67.3047 39.554 66.728 39.3324 66.0632 39.3324C65.0689 39.3324 64.2734 39.8295 63.6768 40.8239C63.0803 41.8182 62.7791 43.3068 62.7734 45.2898C62.7734 46.6307 62.907 47.75 63.174 48.6477C63.4467 49.5398 63.8303 50.2102 64.3246 50.6591C64.8189 51.1023 65.3984 51.3239 66.0632 51.3239Z" fill="#21A038"/>
</g>
<defs>
<filter id="filter0_dd_6030_227" x="0" y="0" width="100" height="90" filterUnits="userSpaceOnUse" color-interpolation-filters="sRGB">
<feFlood flood-opacity="0" result="BackgroundImageFix"/>
<feColorMatrix in="SourceAlpha" type="matrix" values="0 0 0 0 0 0 0 0 0 0 0 0 0 0 0 0 0 0 127 0" result="hardAlpha"/>
<feOffset dy="4"/>
<feGaussianBlur stdDeviation="2"/>
<feComposite in2="hardAlpha" operator="out"/>
<feColorMatrix type="matrix" values="0 0 0 0 0 0 0 0 0 0 0 0 0 0 0 0 0 0 0.5 0"/>
<feBlend mode="normal" in2="BackgroundImageFix" result="effect1_dropShadow_6030_227"/>
<feColorMatrix in="SourceAlpha" type="matrix" values="0 0 0 0 0 0 0 0 0 0 0 0 0 0 0 0 0 0 127 0" result="hardAlpha"/>
<feOffset/>
<feGaussianBlur stdDeviation="5"/>
<feComposite in2="hardAlpha" operator="out"/>
<feColorMatrix type="matrix" values="0 0 0 0 0.713726 0 0 0 0 1 0 0 0 0 0.729412 0 0 0 1 0"/>
<feBlend mode="normal" in2="effect1_dropShadow_6030_227" result="effect2_dropShadow_6030_227"/>
<feBlend mode="normal" in="SourceGraphic" in2="effect2_dropShadow_6030_227" result="shape"/>
</filter>
</defs>
</svg>
